<?xml version="1.0" encoding="UTF-8"?>
<svg id="Layer_2" data-name="Layer 2" xmlns="http://www.w3.org/2000/svg" viewBox="0 0 554.67 396.47">
  <defs>
    <style>
      .cls-1 {
        fill: #f3810f;
      }

      .cls-2 {
        fill: #f1b538;
      }
    </style>
  </defs>
  <g id="Layer_2-2" data-name="Layer 2">
    <rect class="cls-2" y="125.81" width="277.33" height="270.67"/>
  </g>
  <g id="Layer_3" data-name="Layer 3">
    <path class="cls-1" d="M179.25,310.76c-3.25,5.93-7.33,11.01-12.22,15.24-4.96,4.16-10.65,7.38-17.05,9.66-6.4,2.28-13.26,3.32-20.57,3.12-5.9-.13-11.15-1.14-15.74-3.02-4.59-1.88-8.53-4.39-11.82-7.54-3.42-3.08-6.22-6.72-8.4-10.91-2.18-4.19-3.84-8.7-4.98-13.53-1.21-4.76-1.9-9.72-2.06-14.89-.17-5.16.08-10.29.75-15.39l3.02-19.92c.8-5.36,2.06-10.76,3.77-16.2s3.84-10.59,6.39-15.49c2.48-4.83,5.43-9.34,8.85-13.53,3.42-4.19,7.31-7.83,11.67-10.91,4.29-3.02,9.05-5.36,14.28-7.04,5.23-1.68,10.93-2.45,17.1-2.31,7.38.14,13.8,1.46,19.26,3.97,5.46,2.51,10.01,5.95,13.63,10.31,3.62,4.29,6.35,9.39,8.2,15.29,1.84,5.9,2.87,12.34,3.07,19.31l-25.35-.1c-.07-3.62-.39-7.07-.96-10.36-.57-3.29-1.63-6.17-3.17-8.65-1.54-2.48-3.64-4.48-6.29-5.99-2.65-1.51-6.05-2.33-10.21-2.46-3.96-.13-7.48.44-10.56,1.71-3.09,1.28-5.8,2.99-8.15,5.13-2.41,2.21-4.49,4.81-6.24,7.79-1.74,2.99-3.22,6.12-4.43,9.41-1.21,3.29-2.21,6.64-3.02,10.06-.8,3.42-1.44,6.71-1.91,9.86l-2.92,20.22c-.4,2.62-.72,5.5-.96,8.65-.24,3.15-.29,6.3-.15,9.46.07,3.22.42,6.35,1.06,9.41.64,3.05,1.66,5.75,3.07,8.1,1.47,2.41,3.42,4.36,5.83,5.83,2.41,1.48,5.46,2.28,9.15,2.41,4.23.2,7.98-.33,11.27-1.61,3.28-1.27,6.14-3.08,8.55-5.43,2.35-2.35,4.33-5.16,5.94-8.45,1.61-3.29,2.82-6.84,3.62-10.66l25.15-.2c-1.07,7.18-3.24,13.73-6.49,19.67Z"/>
    <g>
      <polygon class="cls-1" points="424.35 248.23 277.33 396.47 277.33 125.81 425.9 -14.04 424.35 248.23"/>
      <path class="cls-2" d="M358.33,259.34l-14.75-90.17-10.15,114.95-14.78,14.76,14.9-171.02,14.65-14.01,14.59,89.98,10.3-113.72,14.9-14.16-15.32,169.17-14.34,14.22Z"/>
    </g>
    <path class="cls-1" d="M232.37,65.97c-6.3,3.82-13.14,7.28-20.53,10.39-7.43,3.08-15.26,5.73-23.48,7.96-8.22,2.23-16.4,3.84-24.54,4.81-6.59.8-12.06,1.01-16.41.64-4.36-.37-7.7-1.2-10.04-2.49-2.52-1.23-4.1-2.86-4.74-4.89-.65-2.03-.57-4.33.22-6.87.69-2.5,2.05-5.19,4.08-8.07,2.03-2.88,4.52-5.8,7.47-8.77l11.98-11.65c3.22-3.14,6.97-6.36,11.24-9.67,4.28-3.31,8.92-6.53,13.92-9.66,4.9-3.08,10.2-6.06,15.9-8.93,5.7-2.86,11.71-5.49,18.01-7.87,6.2-2.33,12.65-4.36,19.35-6.08,6.7-1.72,13.55-3,20.55-3.84,8.38-1.02,15.14-1.23,20.3-.62,5.15.6,8.84,1.86,11.07,3.78,2.26,1.88,3.14,4.34,2.65,7.39-.49,3.05-2.16,6.52-5.01,10.41l-28.85,3.7c1.51-2.03,2.66-3.92,3.45-5.69.79-1.76.85-3.23.17-4.4-.68-1.17-2.19-1.98-4.56-2.43-2.37-.46-5.89-.41-10.58.13-4.46.51-8.72,1.36-12.79,2.53-4.07,1.18-7.91,2.54-11.51,4.1-3.71,1.6-7.2,3.37-10.48,5.31-3.28,1.94-6.31,3.92-9.11,5.95-2.79,2.03-5.39,4.06-7.78,6.11-2.39,2.04-4.54,3.99-6.44,5.83l-12.06,11.81c-1.59,1.53-3.2,3.2-4.83,5.01-1.63,1.81-3.05,3.59-4.26,5.34-1.32,1.8-2.28,3.51-2.88,5.14-.6,1.62-.62,2.99-.05,4.1.62,1.14,1.97,1.95,4.05,2.42,2.08.47,5.17.47,9.28,0,4.68-.51,9.15-1.37,13.42-2.58,4.27-1.2,8.28-2.65,12.04-4.32,3.68-1.67,7.15-3.55,10.41-5.63,3.26-2.09,6.18-4.27,8.77-6.54l28.6-3.84c-4.38,4.2-9.72,8.21-16.02,12.03Z"/>
  </g>
</svg>