<?xml version="1.0" encoding="UTF-8"?>
<svg id="Layer_2" data-name="Layer 2" xmlns="http://www.w3.org/2000/svg" viewBox="0 0 522.6 321.64">
  <defs>
    <style>
      .cls-1 {
        fill: #1cffca;
      }

      .cls-2 {
        fill: #e72137;
      }

      .cls-3 {
        fill: #ed9122;
      }
    </style>
  </defs>
  <g id="Layer_1-2" data-name="Layer 1">
    <path class="cls-3" d="M90.45,127.96c3.52-1.04,6.72-2.64,9.61-4.8,2.8-1.98,5.19-4.49,7.17-7.51,1.98-3.02,3.34-6.43,4.06-10.22l31.94-.27c-.54,8.12-2.8,15.45-6.77,21.99-3.97,6.54-9.02,12.07-15.16,16.58-6.14,4.51-12.97,7.96-20.5,10.35-7.53,2.39-15.18,3.5-22.94,3.32-6.77-.09-12.92-1.06-18.47-2.91-5.55-1.85-10.45-4.31-14.69-7.38-5.23-4.06-9.63-8.98-13.2-14.75-3.57-5.77-6.16-12.09-7.78-18.95-1.08-4.51-1.76-9.25-2.03-14.21-.27-4.96-.14-10.02.41-15.16l.54-4.47c1.26-10.47,4.04-20.25,8.32-29.37,4.28-9.11,9.95-17.32,16.99-24.63,6.4-6.59,13.92-11.66,22.53-15.23,8.62-3.56,18.11-5.21,28.49-4.94,8.21.18,15.68,1.67,22.4,4.47,6.72,2.8,12.43,6.63,17.12,11.5,4.69,4.96,8.23,10.85,10.62,17.66,2.39,6.81,3.36,14.32,2.91,22.53l-32.08-.14c.27-3.79-.05-7.35-.95-10.69-.9-3.34-2.39-6.27-4.47-8.8-1.99-2.44-4.51-4.38-7.58-5.82-3.07-1.44-6.63-2.25-10.69-2.44-4.33-.18-8.21.32-11.64,1.49-3.43,1.17-6.54,2.8-9.34,4.87-2.26,1.81-4.33,3.93-6.23,6.36-1.9,2.44-3.47,4.92-4.74,7.44-2.08,3.88-3.72,8.03-4.94,12.45-1.22,4.42-2.1,8.84-2.64,13.26l-.68,4.33c-.27,3.07-.45,6.34-.54,9.81-.09,3.47.04,6.83.41,10.08.45,3.7,1.26,7.24,2.44,10.62,1.17,3.38,2.93,6.29,5.28,8.73,1.8,1.81,4.01,3.27,6.63,4.4,2.62,1.13,5.68,1.74,9.2,1.83,3.79.09,7.44-.38,10.96-1.42Z"/>
    <path class="cls-2" d="M68.89,292.18c3.52-1.04,6.72-2.64,9.61-4.8,2.8-1.98,5.19-4.49,7.17-7.51,1.98-3.02,3.34-6.43,4.06-10.22l31.94-.27c-.54,8.12-2.8,15.45-6.77,21.99-3.97,6.54-9.02,12.07-15.16,16.58-6.14,4.51-12.97,7.96-20.5,10.35-7.53,2.39-15.18,3.5-22.94,3.32-6.77-.09-12.92-1.06-18.47-2.91-5.55-1.85-10.45-4.31-14.69-7.38-5.23-4.06-9.63-8.98-13.2-14.75-3.57-5.77-6.16-12.09-7.78-18.95-1.08-4.51-1.76-9.25-2.03-14.21-.27-4.96-.14-10.02.41-15.16l.54-4.47c1.26-10.47,4.04-20.25,8.32-29.37,4.28-9.11,9.95-17.32,16.99-24.63,6.4-6.59,13.92-11.66,22.53-15.23,8.62-3.56,18.11-5.21,28.49-4.94,8.21.18,15.68,1.67,22.4,4.47,6.72,2.8,12.43,6.63,17.12,11.5,4.69,4.96,8.23,10.85,10.62,17.66,2.39,6.81,3.36,14.32,2.91,22.53l-32.08-.14c.27-3.79-.05-7.35-.95-10.69-.9-3.34-2.39-6.27-4.47-8.8-1.99-2.44-4.51-4.38-7.58-5.82-3.07-1.44-6.63-2.25-10.69-2.44-4.33-.18-8.21.32-11.64,1.49-3.43,1.17-6.54,2.8-9.34,4.87-2.26,1.81-4.33,3.93-6.23,6.36-1.9,2.44-3.47,4.92-4.74,7.44-2.08,3.88-3.72,8.03-4.94,12.45-1.22,4.42-2.1,8.84-2.64,13.26l-.68,4.33c-.27,3.07-.45,6.34-.54,9.81-.09,3.47.04,6.83.41,10.08.45,3.7,1.26,7.24,2.44,10.62,1.17,3.38,2.93,6.29,5.28,8.73,1.8,1.81,4.01,3.27,6.63,4.4,2.62,1.13,5.68,1.74,9.2,1.83,3.79.09,7.44-.38,10.96-1.42Z"/>
    <path class="cls-1" d="M279.48,5.73l64.56-.29-5.43,43.99c5.33-6.28,10.9-12.14,16.71-17.57,5.81-5.43,12.04-10.23,18.71-14.43,8.76-5.71,18.28-10.09,28.57-13.14C412.89,1.26,423.84-.17,435.46.02c17.9.38,32.71,4.05,44.42,11,11.71,6.96,20.9,16.14,27.57,27.57,6.86,11.42,11.33,24.57,13.43,39.42,2.09,14.85,2.28,30.19.57,45.99l-32,190.83h-71.99l31.71-190.54c1.14-9.33,1.24-17.85.29-25.57-.96-7.71-3.14-14.33-6.57-19.85-3.62-5.71-8.62-10.14-15-13.28-6.38-3.14-14.62-4.81-24.71-5-7.05-.19-13.76.53-20.14,2.14-6.38,1.62-12.33,3.95-17.85,7-5.33,2.86-10.38,6.43-15.14,10.71-4.76,4.28-9.24,9-13.43,14.14l-38.57,220.25h-72.27L279.48,5.73Z"/>
    <path class="cls-1" d="M162.63,143.19c6.99-7.27,15.97-10.9,26.95-10.9,10.28,0,18.82,3.29,25.61,9.87,6.79,6.58,10.18,14.95,10.18,25.09,0,10.83-3.67,19.71-11.01,26.64-7.34,6.92-16.22,10.39-26.64,10.39s-18.79-3.22-25.51-9.67c-6.72-6.44-10.08-14.67-10.08-24.68,0-10.56,3.5-19.47,10.49-26.74Z"/>
  </g>
</svg>